<?xml version="1.0" encoding="iso-8859-1"?>
<!-- Generator: Adobe Illustrator 19.0.0, SVG Export Plug-In . SVG Version: 6.00 Build 0)  -->
<svg version="1.1" id="Layer_1" xmlns="http://www.w3.org/2000/svg" xmlns:xlink="http://www.w3.org/1999/xlink" x="0px" y="0px"
	 viewBox="0 0 512 512" style="enable-background:new 0 0 512 512;" xml:space="preserve">
<path style="fill:#FFFFFF;" d="M194.531,135.331c0-27.159-22.019-49.179-49.178-49.179h-12.292
	c-47.529,0-86.065,38.536-86.065,86.064v221.942h49.179V184.509h49.179C172.511,184.509,194.531,162.49,194.531,135.331z"/>
<path style="fill:#00D7DF;" d="M194.531,135.331c0,27.159-22.019,49.178-49.178,49.178H96.174v-49.178H194.531z"/>
<polygon style="fill:#FFFFFF;" points="415.827,184.509 415.827,427.339 339.003,504.162 96.174,504.162 96.174,184.509 "/>
<g>
	<polyline style="fill:#F66232;" points="415.827,427.339 339.004,427.339 339.004,504.162 	"/>
	<path style="fill:#F66232;" d="M465.005,135.331c0,27.159-22.019,49.178-49.179,49.178H145.352
		c27.159,0,49.178-22.019,49.178-49.178s-22.019-49.179-49.178-49.179h270.476c13.58,0,25.872,5.502,34.774,14.405
		S465.005,121.751,465.005,135.331z"/>
</g>
<rect x="233.407" y="235.35" style="fill:#FFFFFF;" width="45.187" height="45.187"/>
<rect x="233.407" y="408.135" style="fill:#F66232;" width="45.187" height="45.187"/>
<path d="M472.843,135.331c0-15.234-5.93-29.553-16.696-40.319c-10.766-10.768-25.085-16.697-40.32-16.697H263.838V58.512
	c12.631-3.45,21.946-15.019,21.946-28.729C285.783,13.361,272.423,0,256,0s-29.783,13.361-29.783,29.783
	c0,13.71,9.314,25.279,21.946,28.729v19.802H133.063c-51.78,0-93.906,42.127-93.906,93.906v229.78h34.402v-15.675H54.833V172.22
	c0-43.137,35.094-78.231,78.231-78.231h12.288c22.795,0,41.34,18.545,41.34,41.341c0,22.795-18.545,41.34-41.34,41.34v0.001h-41.34
	v-33.504h67.909v-15.675H88.336v100.15h15.675v-35.295H407.99v231.745l-61.148,61.148v-50.063h46.376v-15.675h-62.052v76.824
	H104.011V321.412H88.336V512H342.25l81.415-81.415v-238.79C451.406,187.963,472.843,164.11,472.843,135.331z M241.892,29.783
	c0-7.779,6.329-14.108,14.108-14.108s14.108,6.329,14.108,14.108S263.779,43.891,256,43.891S241.892,37.562,241.892,29.783z
	 M415.826,176.673H184.554c10.958-10.397,17.814-25.08,17.814-41.342c0-16.263-6.854-30.943-17.812-41.341h231.272
	c11.048,0,21.431,4.298,29.237,12.106c7.805,7.805,12.105,18.188,12.105,29.236C457.168,158.126,438.622,176.673,415.826,176.673z"
	/>
<path d="M372.827,227.509h-60.865v60.865h60.865V227.509z M357.151,272.7h-29.515v-29.515h29.515V272.7z"/>
<path d="M139.174,461.162h60.865v-60.865h-60.865V461.162z M154.85,415.972h29.515v29.515H154.85V415.972z"/>
<path d="M286.433,227.509h-60.865v60.865h60.865V227.509z M270.758,272.7h-29.515v-29.515h29.515V272.7z"/>
<path d="M225.568,461.162h60.865v-60.865h-60.865L225.568,461.162L225.568,461.162z M241.243,415.972h29.515v29.515h-29.515
	L241.243,415.972L241.243,415.972z"/>
<path d="M225.568,374.768h60.865v-60.865h-60.865L225.568,374.768L225.568,374.768z M241.243,329.578h29.515v29.515h-29.515
	L241.243,329.578L241.243,329.578z"/>
<path d="M200.04,313.903h-60.865v60.865h60.865V313.903z M184.365,359.093H154.85v-29.515h29.515V359.093z"/>
<path d="M311.961,374.768h60.865v-60.865h-60.865V374.768z M327.637,329.578h29.515v29.515h-29.515V329.578z"/>
<rect x="88.336" y="247.41" width="15.675" height="16.946"/>
<rect x="88.336" y="284.696" width="15.675" height="16.946"/>
<g>
</g>
<g>
</g>
<g>
</g>
<g>
</g>
<g>
</g>
<g>
</g>
<g>
</g>
<g>
</g>
<g>
</g>
<g>
</g>
<g>
</g>
<g>
</g>
<g>
</g>
<g>
</g>
<g>
</g>
</svg>
